<svg class="xduoyf" width="100" height="400" viewBox="0 0 35
 20" fill="none" xmlns="http://www.w3.org/2000/svg"><path d="M9.9 9a27.8 27.8 0 0 1 24 .4c.4.3 1 0 1.1-.4l1.4-4.3c.2-.4 0-1-.5-1.2A34 34 0 0 0 .4 6.9a1 1 0 0 0-.3 1.3l3.3 7.3c.2.5.8.8 1.3.6 3.7-1.4 9.4-2.8 15.2-2-4 .7-7.1 2.1-9.6 3.6A1 1 0 0 0 10 19l2 4.6c.2.4.7.5 1 .2.8-.8 1.6-1.4 2.3-1.8 3.2-1.8 7.6-3.2 13.5-2.9a1 1 0 0 0 1-.7l1.5-4.5c.2-.4 0-1-.4-1.2A30.5 30.5 0 0 0 9.8 9z" fill="url(#i2)"></path><defs><linearGradient id="i2" x1="13.1" y1="-1.1" x2="26.7" y2="20.6" gradientUnits="userSpaceOnUse"><stop offset=".1" stop-color="#FF4C1D"></stop><stop offset=".3" stop-color="#F64523"></stop><stop offset=".5" stop-color="#DE3334"></stop><stop offset=".8" stop-color="#B61550"></stop><stop offset="1" stop-color="#9B0063"></stop></linearGradient></defs></svg>